<svg xmlns="http://www.w3.org/2000/svg" xmlns:xlink="http://www.w3.org/1999/xlink" width="500" zoomAndPan="magnify" viewBox="0 0 375 374.999991" height="500" preserveAspectRatio="xMidYMid meet" version="1.0"><defs><clipPath id="cfd65aa9e4"><path d="M 55 124 L 309 124 L 309 256 L 55 256 Z M 55 124 " clip-rule="nonzero"/></clipPath><clipPath id="40062eb5dc"><path d="M 37.5 155.613281 L 291.632812 76.207031 L 336.367188 219.382812 L 82.234375 298.789062 Z M 37.5 155.613281 " clip-rule="nonzero"/></clipPath><clipPath id="96e5e1705e"><path d="M 37.5 155.613281 L 291.632812 76.207031 L 336.367188 219.382812 L 82.234375 298.789062 Z M 37.5 155.613281 " clip-rule="nonzero"/></clipPath><clipPath id="83cc10041f"><path d="M 37.5 155.613281 L 291.632812 76.207031 L 336.367188 219.382812 L 82.234375 298.789062 Z M 37.5 155.613281 " clip-rule="nonzero"/></clipPath></defs><rect x="-37.5" width="450" fill="#ffffff" y="-37.499999" height="449.999989" fill-opacity="1"/><rect x="-37.5" width="450" fill="#38b6ff" y="-37.499999" height="449.999989" fill-opacity="1"/><g clip-path="url(#cfd65aa9e4)"><g clip-path="url(#40062eb5dc)"><g clip-path="url(#96e5e1705e)"><g clip-path="url(#83cc10041f)"><path fill="#000000" d="M 289.128906 125.324219 C 296.921875 125.933594 306.265625 123.011719 308.648438 130.640625 C 314.277344 148.648438 243.195312 182.648438 240.425781 183.511719 L 232.621094 244.890625 C 232.183594 249.585938 230.089844 251.390625 227.421875 252.597656 L 219.667969 255.78125 L 207.980469 218.371094 L 188.074219 209.378906 C 186.339844 209.917969 176.832031 214.785156 156.066406 221.273438 C 131.828125 228.84375 124.925781 229.871094 123.195312 230.410156 L 124.109375 243.050781 C 124.410156 245.246094 118.84375 248.117188 117.378906 247.054688 L 99.710938 234.320312 C 97.292969 235.078125 90.847656 236.339844 90.195312 234.253906 C 89.332031 231.492188 90.042969 230.125 91.210938 229.003906 L 57.210938 212.625 C 54.945312 211.4375 60.09375 206.027344 66.492188 207.058594 L 95.902344 211.175781 L 87.890625 191.625 L 93.460938 188.757812 C 95.425781 187.757812 100.910156 189.472656 102.71875 190.414062 L 126.792969 204.191406 L 156.109375 188.5625 L 136.914062 178.222656 L 55.289062 156.574219 L 59.757812 150.230469 C 59.757812 150.230469 60.714844 148.414062 65.5625 146.898438 L 217.394531 157.257812 L 257.148438 136.089844 C 258.769531 135.199219 264.746094 128.773438 273.398438 126.070312 C 282.753906 123.144531 283.296875 124.871094 289.136719 125.324219 " fill-opacity="1" fill-rule="nonzero"/></g></g></g></g></svg>